<svg xmlns="http://www.w3.org/2000/svg" viewBox="0 0 64 64" role="img" aria-labelledby="title">
  <title>Diti Jain favicon</title>
  <rect width="64" height="64" rx="16" fill="#243340" />
  <path fill="#69a7da" opacity="0.16" d="M10 32C10 19.8 19.8 10 32 10C44.2 10 54 19.8 54 32C54 44.2 44.2 54 32 54C19.8 54 10 44.2 10 32ZM32 15C22.6 15 15 22.6 15 32C15 41.4 22.6 49 32 49C41.4 49 49 41.4 49 32C49 22.6 41.4 15 32 15Z" />
  <path fill="#69a7da" d="M32 9.5C32.4 13 34.9 15.5 38.4 15.9C34.9 16.3 32.4 18.8 32 22.3C31.6 18.8 29.1 16.3 25.6 15.9C29.1 15.5 31.6 13 32 9.5Z" />
  <path fill="#fbfdff" d="M32 22C32.8 29 36.9 33.2 44 34C36.9 34.8 32.8 39 32 46C31.2 39 27.1 34.8 20 34C27.1 33.2 31.2 29 32 22Z" />
</svg>
