<svg xmlns="http://www.w3.org/2000/svg" viewBox="0 0 64 64" role="img" aria-labelledby="title">
  <title>Favicon option 12</title>
  <rect width="64" height="64" rx="16" fill="#243340" />
  <circle cx="32" cy="32" r="22" fill="none" stroke="#69a7da" stroke-width="1.6" opacity="0.42" />
  <circle cx="32" cy="32" r="18.5" fill="none" stroke="#69a7da" stroke-width="2.8" />
  <g transform="translate(8 11) scale(0.58)">
    <path fill="#fbfdff" d="M14 14H27.5C36.2 14 41 19.4 41 32C41 44.6 36.2 50 27.5 50H14V14ZM20 20V44H26.8C31.4 44 34.6 40.6 34.6 32C34.6 23.4 31.4 20 26.8 20H20Z" />
    <path fill="#69a7da" d="M14 14H18.6V50H14Z" />
  </g>
  <g transform="translate(17 11) scale(0.58)">
    <path fill="#69a7da" d="M48 14V39.2C48 47.3 43.5 52 35.9 52C34 52 32.1 51.7 30.6 51V44.1C31.9 44.7 33.1 45 34.4 45C38 45 40.6 42.9 40.6 38.7V20.1H34.9V14H48Z" />
  </g>
</svg>
