<svg xmlns="http://www.w3.org/2000/svg" viewBox="0 0 64 64" role="img" aria-labelledby="title">
  <title>Observatory favicon mockup</title>
  <rect width="64" height="64" rx="16" fill="#243340" />
  <circle cx="32" cy="32" r="18.5" fill="none" stroke="#69a7da" stroke-width="3" />
  <circle cx="32" cy="32" r="6.5" fill="#fbfdff" />
  <path d="M32 8V18" stroke="#fbfdff" stroke-width="2" stroke-linecap="round" opacity="0.9" />
  <path d="M32 46V56" stroke="#fbfdff" stroke-width="2" stroke-linecap="round" opacity="0.9" />
  <path d="M8 32H18" stroke="#fbfdff" stroke-width="2" stroke-linecap="round" opacity="0.9" />
  <path d="M46 32H56" stroke="#fbfdff" stroke-width="2" stroke-linecap="round" opacity="0.9" />
  <path d="M18.5 18.5L23.5 23.5" stroke="#69a7da" stroke-width="2" stroke-linecap="round" />
  <path d="M40.5 40.5L45.5 45.5" stroke="#69a7da" stroke-width="2" stroke-linecap="round" />
  <path d="M45.5 18.5L40.5 23.5" stroke="#69a7da" stroke-width="2" stroke-linecap="round" />
  <path d="M23.5 40.5L18.5 45.5" stroke="#69a7da" stroke-width="2" stroke-linecap="round" />
  <path fill="#3878b5" d="M32 21C32.5 25.4 35.6 28.5 40 29C35.6 29.5 32.5 32.6 32 37C31.5 32.6 28.4 29.5 24 29C28.4 28.5 31.5 25.4 32 21Z" />
</svg>
