<svg xmlns="http://www.w3.org/2000/svg" viewBox="0 0 64 64" role="img" aria-labelledby="title">
  <title>Favicon option 15</title>
  <rect width="64" height="64" rx="16" fill="#fbfdff" />
  <path d="M12 18H52" stroke="#3878b5" stroke-width="2.2" stroke-linecap="round" />
  <path d="M12 46H52" stroke="#22303d" stroke-width="2.2" stroke-linecap="round" opacity="0.7" />
  <g transform="translate(7 9) scale(0.62)">
    <path fill="#3878b5" d="M14 14H27.5C36.2 14 41 19.4 41 32C41 44.6 36.2 50 27.5 50H14V14ZM20 20V44H26.8C31.4 44 34.6 40.6 34.6 32C34.6 23.4 31.4 20 26.8 20H20Z" />
  </g>
  <g transform="translate(18 9) scale(0.62)">
    <path fill="#22303d" d="M48 14V39.2C48 47.3 43.5 52 35.9 52C34 52 32.1 51.7 30.6 51V44.1C31.9 44.7 33.1 45 34.4 45C38 45 40.6 42.9 40.6 38.7V20.1H34.9V14H48Z" />
  </g>
</svg>
