<svg xmlns="http://www.w3.org/2000/svg" viewBox="0 0 64 64" role="img" aria-labelledby="title">
  <title>Favicon option 10</title>
  <rect width="64" height="64" rx="16" fill="#22303d" />
  <circle cx="32" cy="32" r="18.5" fill="none" stroke="#69a7da" stroke-width="3" />
  <path d="M32 8V16" stroke="#fbfdff" stroke-width="2" stroke-linecap="round" opacity="0.9" />
  <path d="M32 48V56" stroke="#fbfdff" stroke-width="2" stroke-linecap="round" opacity="0.9" />
  <path d="M8 32H16" stroke="#fbfdff" stroke-width="2" stroke-linecap="round" opacity="0.9" />
  <path d="M48 32H56" stroke="#fbfdff" stroke-width="2" stroke-linecap="round" opacity="0.9" />
  <g transform="translate(11 14) scale(0.48)">
    <path fill="#fbfdff" d="M14 14H27.5C36.2 14 41 19.4 41 32C41 44.6 36.2 50 27.5 50H14V14ZM20 20V44H26.8C31.4 44 34.6 40.6 34.6 32C34.6 23.4 31.4 20 26.8 20H20Z" />
    <path fill="#3878b5" d="M14 14H18.6V50H14Z" />
  </g>
  <g transform="translate(18 14) scale(0.48)">
    <path fill="#69a7da" d="M48 14V39.2C48 47.3 43.5 52 35.9 52C34 52 32.1 51.7 30.6 51V44.1C31.9 44.7 33.1 45 34.4 45C38 45 40.6 42.9 40.6 38.7V20.1H34.9V14H48Z" />
  </g>
</svg>
