<svg xmlns="http://www.w3.org/2000/svg" viewBox="0 0 64 64" role="img" aria-labelledby="title">
  <title>Ledger DJ favicon mockup</title>
  <rect width="64" height="64" rx="16" fill="#fbfdff" />
  <rect x="6" y="6" width="52" height="52" rx="13" fill="none" stroke="#3878b5" stroke-width="2" />
  <path fill="#3878b5" d="M16 12H29.6C38.5 12 43.8 17.8 43.8 32C43.8 46.2 38.5 52 29.6 52H16V12ZM23.3 19.8V44.2H28.7C33.5 44.2 36.5 40.8 36.5 32C36.5 23.2 33.5 19.8 28.7 19.8H23.3Z" />
  <path fill="#22303d" d="M48.1 12V39.3C48.1 47.5 43.3 52.3 35.2 52.3C33 52.3 31 51.9 29.2 51.2V43.8C30.7 44.5 32.3 44.8 33.8 44.8C37.6 44.8 40.2 42.5 40.2 38.5V20H34.2V12H48.1Z" />
  <path d="M14 28.5H28" stroke="#22303d" stroke-width="1.4" stroke-linecap="round" opacity="0.16" />
  <path fill="#22303d" d="M45 22C45.5 26.4 48.6 29.5 53 30C48.6 30.5 45.5 33.6 45 38C44.5 33.6 41.4 30.5 37 30C41.4 29.5 44.5 26.4 45 22Z" opacity="0.12" />
</svg>
