<svg xmlns="http://www.w3.org/2000/svg" viewBox="0 0 64 64" role="img" aria-labelledby="title">
  <title>Favicon option 08</title>
  <rect width="64" height="64" rx="16" fill="#243340" />
  <path fill="#69a7da" opacity="0.16" d="M10 32C10 19.8 19.8 10 32 10C44.2 10 54 19.8 54 32C54 44.2 44.2 54 32 54C19.8 54 10 44.2 10 32ZM32 15C22.6 15 15 22.6 15 32C15 41.4 22.6 49 32 49C41.4 49 49 41.4 49 32C49 22.6 41.4 15 32 15Z" />
  <g transform="translate(8 11) scale(0.58)">
    <path fill="#fbfdff" d="M14 14H27.5C36.2 14 41 19.4 41 32C41 44.6 36.2 50 27.5 50H14V14ZM20 20V44H26.8C31.4 44 34.6 40.6 34.6 32C34.6 23.4 31.4 20 26.8 20H20Z" />
    <path fill="#69a7da" d="M14 14H18.6V50H14Z" />
  </g>
  <g transform="translate(17 11) scale(0.58)">
    <path fill="#69a7da" d="M48 14V39.2C48 47.3 43.5 52 35.9 52C34 52 32.1 51.7 30.6 51V44.1C31.9 44.7 33.1 45 34.4 45C38 45 40.6 42.9 40.6 38.7V20.1H34.9V14H48Z" />
  </g>
</svg>
