<svg xmlns="http://www.w3.org/2000/svg" viewBox="0 0 64 64" role="img" aria-labelledby="title">
  <title>Seal DJ favicon mockup</title>
  <rect width="64" height="64" rx="16" fill="#243340" />
  <circle cx="32" cy="32" r="22" fill="#fbfdff" />
  <circle cx="32" cy="32" r="20.5" fill="none" stroke="#69a7da" stroke-width="1.5" />
  <path fill="#3878b5" d="M19 20H30.1C37.1 20 41 24.3 41 32C41 39.7 37.1 44 30.1 44H19V20ZM25 25.8V38.2H29.4C32.5 38.2 34.3 36 34.3 32C34.3 28 32.5 25.8 29.4 25.8H25Z" />
  <path fill="#22303d" d="M44.7 20V35.8C44.7 41.6 41.4 45 35.6 45C34 45 32.5 44.7 31.2 44.2V38.2C32.3 38.7 33.4 38.9 34.4 38.9C36.8 38.9 38.1 37.6 38.1 35.1V25.7H34.2V20H44.7Z" />
  <path fill="#69a7da" d="M32 12.5C32.4 16 34.9 18.5 38.4 18.9C34.9 19.3 32.4 21.8 32 25.3C31.6 21.8 29.1 19.3 25.6 18.9C29.1 18.5 31.6 16 32 12.5Z" />
</svg>
